<?xml version="1.0" encoding="UTF-8"?>
<svg xmlns="http://www.w3.org/2000/svg" viewBox="0 0 500 289.19">
  <defs>
    <style>
      .cls-1 {
        fill: #a7a9ac;
      }

      .cls-2, .cls-3 {
        fill: #939598;
      }

      .cls-2, .cls-4, .cls-5, .cls-6 {
        mix-blend-mode: multiply;
      }

      .cls-7 {
        isolation: isolate;
      }

      .cls-4, .cls-8 {
        fill: #bcbec0;
      }

      .cls-9 {
        fill: #fff;
        opacity: .5;
      }

      .cls-10 {
        fill: #6d6e71;
      }

      .cls-5 {
        fill: #d1d3d4;
      }

      .cls-11 {
        fill: #808285;
      }

      .cls-12 {
        fill: #ed1c24;
      }

      .cls-13, .cls-6 {
        fill: #e6e7e8;
      }

      .cls-14 {
        fill: #414042;
      }
    </style>
  </defs>
  <g class="cls-7">
    <g id="Layer_1" data-name="Layer 1">
      <g>
        <g>
          <g>
            <path d="m373.93,226.15c0,34.81,28.22,63.03,63.03,63.03s63.03-28.22,63.03-63.03-28.22-63.03-63.03-63.03-63.03,28.22-63.03,63.03Zm23.08,0c0-22.07,17.89-39.96,39.96-39.96s39.96,17.89,39.96,39.96-17.89,39.96-39.96,39.96-39.96-17.89-39.96-39.96Z"/>
            <path class="cls-11" d="m436.97,184.62c-22.94,0-41.53,18.59-41.53,41.53s18.59,41.53,41.53,41.53,41.53-18.59,41.53-41.53-18.59-41.53-41.53-41.53Zm0,78.86c-20.61,0-37.33-16.71-37.33-37.33s16.71-37.33,37.33-37.33,37.33,16.71,37.33,37.33-16.71,37.33-37.33,37.33Z"/>
          </g>
          <circle cx="436.97" cy="226.15" r="16.96"/>
        </g>
        <g>
          <g>
            <path d="m107.36,163.12c-34.81,0-63.03,28.22-63.03,63.03s28.22,63.03,63.03,63.03,63.03-28.22,63.03-63.03-28.22-63.03-63.03-63.03Zm0,102.99c-22.07,0-39.96-17.89-39.96-39.96s17.89-39.96,39.96-39.96,39.96,17.89,39.96,39.96-17.89,39.96-39.96,39.96Z"/>
            <path class="cls-11" d="m107.36,184.62c-22.94,0-41.53,18.59-41.53,41.53s18.59,41.53,41.53,41.53,41.53-18.59,41.53-41.53-18.59-41.53-41.53-41.53Zm0,78.86c-20.61,0-37.33-16.71-37.33-37.33s16.71-37.33,37.33-37.33,37.33,16.71,37.33,37.33-16.71,37.33-37.33,37.33Z"/>
          </g>
          <circle cx="107.36" cy="226.15" r="16.96"/>
          <path class="cls-2" d="m93.64,198.68c.49,16.54,14.03,29.81,30.69,29.81,4.94,0,9.59-1.19,13.72-3.26-.49-16.54-14.03-29.81-30.69-29.81-4.94,0-9.59,1.19-13.72,3.26Z"/>
        </g>
        <g>
          <path class="cls-8" d="m359.84,134.24l-33.95-40.46c-4.93-5.87-12.2-9.27-19.87-9.27h-8.84c-24.91,0-48.24,12.22-62.43,32.71h0c-9.53,13.76-25.2,21.97-41.94,21.97h0c-7.58,0-14.77-3.38-19.6-9.22l-8.42-10.17c-5.17-6.24-12.85-9.85-20.95-9.85h-73.8v86.85h289.8v-62.58Z"/>
          <path d="m143.84,109.96c8.1,0,15.78,3.61,20.95,9.85l8.42,10.17c4.84,5.84,12.02,9.22,19.6,9.22h0c16.74,0,32.41-8.21,41.94-21.97h0c1.66-2.41,3.47-4.69,5.37-6.86h0c3.35,1.69,3.57,6.86,2.53,12.66-3.8,21.36-22.15,36.94-43.79,38.46-39.48,2.77-89.2-21.92-89.2-21.92l-9.09-29.6h43.25Z"/>
        </g>
        <path d="m95.74,204.89h48.97c2.31,0,4.18-1.87,4.18-4.18v-37.16c0-2.74,2.59-4.74,5.23-4.05l16.37,4.25c17.8,4.62,36.52,4.27,54.13-1.03l43.55-13.1c28-8.42,50.09-30.05,59.09-57.88l7.56-23.38c4.45-13.76,17.27-23.09,31.74-23.09h0c2.53,0,4.48,2.23,4.15,4.74l-27.29,204.42c-.5,3.15-3.22,5.48-6.41,5.48h-97.59c-8.85,0-17.63-1.5-25.98-4.44l-25.31-8.91c-6.49-2.29-13.32-3.45-20.2-3.45h-72.19c-10.56,0-19.11-8.56-19.11-19.11h0c0-10.56,8.56-19.11,19.11-19.11Z"/>
        <g>
          <path class="cls-8" d="m43.35,134.1h55.84l-18.87-82.51c-1.99-8.69-9.71-14.84-18.62-14.84h-11.86c-3.58,0-6.48,2.9-6.48,6.48v90.87Z"/>
          <path d="m78.38,118.9l-18.79-82.15h2.1c8.91,0,16.64,6.16,18.62,14.84l18.87,82.51h-55.84v-15.2h35.03Z"/>
          <path class="cls-9" d="m75.63,56.28c-1.99-8.69-9.71-14.84-18.62-14.84h-13.37c.78-2.7,3.25-4.69,6.2-4.69h11.86c8.91,0,16.64,6.16,18.62,14.84l18.87,82.51h-5.76l-17.8-77.82Z"/>
        </g>
        <g>
          <path d="m436.97,231.62c1.24,0,2.49-.42,3.51-1.28,2.31-1.94,2.61-5.39.67-7.7L305.79,61.32c-1.94-2.31-5.39-2.61-7.7-.67-2.31,1.94-2.61,5.39-.67,7.7l135.36,161.32c1.08,1.29,2.63,1.95,4.19,1.95Z"/>
          <g>
            <g>
              <path class="cls-11" d="m294.63,75.87l9.68-5.89c2.06-1.25,2.71-3.94,1.46-5.99h0c-1.25-2.06-3.94-2.71-5.99-1.46l-9.68,5.89c-2.06,1.25-2.71,3.94-1.46,5.99h0c1.25,2.06,3.94,2.71,5.99,1.46Z"/>
              <path class="cls-14" d="m305.74,63.94s.02.02.03.04c1.25,2.06.6,4.74-1.46,5.99l-9.68,5.89c-2.06,1.25-4.74.6-5.99-1.46,0-.01-.01-.03-.02-.04l17.13-10.43Z"/>
            </g>
            <path class="cls-14" d="m288.64,74.41c1.25,2.06,3.94,2.71,5.99,1.46,2.06-1.25,2.71-3.94,1.46-5.99-1.25-2.06-3.94-2.71-5.99-1.46-2.06,1.25-2.71,3.94-1.46,5.99Z"/>
            <path class="cls-11" d="m290.04,73.56c.78,1.29,2.46,1.69,3.75.91,1.29-.78,1.69-2.46.91-3.75s-2.46-1.69-3.75-.91c-1.29.78-1.69,2.46-.91,3.75Z"/>
          </g>
        </g>
        <g>
          <polygon points="26.45 179.01 94.33 179.01 94.33 121.16 14.26 121.16 26.45 179.01"/>
          <path class="cls-12" d="m20.36,150.09h8.12c3.51,0,6.36,2.85,6.36,6.36s-2.85,6.36-6.36,6.36h-5.44l-2.68-12.71Z"/>
        </g>
        <path class="cls-8" d="m33.71,145.78l88.77,17.34-17.49-73.19c-2.15-8.99-10.18-15.33-19.42-15.33H16.7C7.48,74.61,0,82.08,0,91.31v13.53C0,124.79,14.13,141.95,33.71,145.78Z"/>
        <g>
          <g>
            <path class="cls-8" d="m436.97,158.13c18.96,0,36.09,7.78,48.43,20.29h0c0,4.8-4.39,8.32-9.1,7.41-4.16-.8-8.45-1.22-12.84-1.22-21.41,0-40.51,9.9-52.97,25.37-10.15,12.6-25.21,20.23-41.39,20.23-.08-1.35-.14-2.7-.14-4.07,0-37.56,30.45-68.02,68.02-68.02Z"/>
            <path class="cls-9" d="m485.39,178.43s0,.08,0,.12c-.08,5.08-6.31,7.41-10.04,3.96-7.99-7.4-17.76-12.91-28.59-15.81-3.86-1.03-6.56-4.49-6.56-8.48h0c17.67.83,33.56,8.41,45.19,20.21Z"/>
          </g>
          <path class="cls-2" d="m368.95,226.15c0,1.37.06,2.72.14,4.07,5.44,0,10.74-.88,15.78-2.5,3.7-29.99,22.8-56.85,51.56-69.57-37.32.29-67.49,30.62-67.49,68Z"/>
        </g>
        <g>
          <circle cx="239.21" cy="199.94" r="30.75"/>
          <path class="cls-11" d="m239.21,174.29c-11.46,0-21.66,5.33-28.31,13.63,4.68-11.01,15.59-18.73,28.31-18.73s23.63,7.72,28.31,18.73c-6.65-8.3-16.85-13.63-28.31-13.63Z"/>
          <path class="cls-11" d="m239.21,221.68c8.88,0,16.79-4.13,21.94-10.56-3.63,8.53-12.08,14.52-21.94,14.52s-18.31-5.98-21.94-14.52c5.15,6.43,13.06,10.56,21.94,10.56Z"/>
        </g>
        <path class="cls-8" d="m351.3,0l91.19,94c5.25,5.41,8.19,12.66,8.19,20.2h0c0,9.18-4.34,17.82-11.71,23.29l-24.94,18.52c-27.79,20.64-44.17,53.21-44.17,87.83h0c0,5.95-4.83,10.78-10.78,10.78h-74.68c-5.28,0-9.56-4.28-9.56-9.56h0c0-46.36,19.71-90.53,54.21-121.49l23.52-21.11c7.82-7.02,10.79-17.96,7.61-27.97l-16.7-52.44c-2.63-8.27.56-17.29,7.83-22.05h0Z"/>
        <path class="cls-3" d="m357.91,67.38l-14.43-45.33c-2.63-8.27.56-17.29,7.83-22.05l81.75,84.27c-23.58-7.45-48.77-13.18-75.14-16.88Z"/>
        <path class="cls-5" d="m0,104.84v-1.72h18.33c35.29,0,66.32,22.28,78.01,54.89l-62.62-12.23C14.13,141.95,0,124.79,0,104.84Z"/>
        <path class="cls-9" d="m351.46,130.72c2.66,4.45,5.49,8.77,8.3,13.1l4.3,6.44c1.43,2.1,2.6,4.14,3.42,6.44,1.59,4.53,2.05,9.44,1.02,14.08-.24,1.16-.57,2.3-.95,3.41l-1.32,3.6-2.68,7.25-2.58,7.29c-.86,2.46-1.71,4.98-2.38,7.51-1.32,5.1-2.36,10.27-2.82,15.5-.54,5.22-.58,10.48-.22,15.68.42,5.16.85,10.3,1.48,15.44.41-5.16.6-10.33.82-15.48.19-5.1.72-10.17,1.55-15.17.87-4.99,1.96-9.94,3.46-14.75.74-2.42,1.53-4.79,2.42-7.18l2.68-7.25,2.58-7.29,1.29-3.68c.44-1.33.82-2.67,1.03-4.05.95-5.49.27-11.25-1.99-16.28-1.1-2.5-2.65-4.88-4.34-6.89l-4.92-5.98c-3.33-3.95-6.65-7.9-10.14-11.73Z"/>
        <path class="cls-9" d="m410.51,96.51h-45.65l37.84,17.1s-5.46-7.32,7.82-17.1Z"/>
        <g>
          <g>
            <path class="cls-1" d="m170.05,230.87h16.75c9.64,0,19.22,1.61,28.33,4.77l33.28,11.52c6.74,2.33,13.72,3.73,20.81,4.18,1.94.12,3.43,1.74,3.43,3.68h0c0,2.14-1.81,3.84-3.95,3.7-7.74-.5-15.36-2.02-22.72-4.57l-33.28-11.52c-8.35-2.89-17.07-4.36-25.91-4.36h-16.54c-2.01,0-3.8-1.5-3.91-3.5-.11-2.14,1.59-3.9,3.7-3.9Z"/>
            <path class="cls-9" d="m166.42,233.87c.34-1.78,2-2.99,3.81-2.99h16.57c9.65,0,19.22,1.61,28.34,4.77l33.28,11.52c6.33,2.19,12.87,3.56,19.51,4.1h0c0,2.17-1.91,3.87-4.07,3.59-5.24-.7-10.41-1.92-15.44-3.66l-33.28-11.52c-9.11-3.16-18.69-4.77-28.33-4.77h-16.75c-1.3,0-2.44.68-3.1,1.69-.49-.76-.72-1.71-.53-2.72Z"/>
          </g>
          <g>
            <rect class="cls-8" x="43.55" y="223.58" width="102.56" height="22.19" transform="translate(189.66 469.35) rotate(180)"/>
            <rect class="cls-2" x="43.55" y="234.67" width="102.56" height="11.1" transform="translate(189.66 480.45) rotate(180)"/>
            <rect class="cls-9" x="43.55" y="223.58" width="102.56" height="5.36" transform="translate(189.66 452.52) rotate(180)"/>
          </g>
          <g>
            <g>
              <polygon class="cls-8" points="174.64 238.87 146.11 245.77 146.11 223.58 174.64 230.48 174.64 238.87"/>
              <polygon class="cls-2" points="174.64 238.87 146.11 245.77 146.11 234.67 174.64 234.67 174.64 238.87"/>
              <polygon class="cls-9" points="174.64 232.5 146.11 228.94 146.11 223.58 174.64 230.48 174.64 232.5"/>
            </g>
            <polygon class="cls-6" points="174.64 238.87 146.11 245.77 146.11 223.58 174.64 230.48 174.64 238.87"/>
          </g>
          <g>
            <g>
              <polygon class="cls-8" points="31.96 238.87 43.55 245.77 43.55 223.58 31.96 230.48 31.96 238.87"/>
              <polygon class="cls-2" points="31.96 238.87 43.55 245.77 43.55 234.67 31.96 234.67 31.96 238.87"/>
              <polygon class="cls-9" points="31.96 232.5 43.55 228.94 43.55 223.58 31.96 230.48 31.96 232.5"/>
            </g>
            <polygon class="cls-4" points="31.96 238.87 43.55 245.77 43.55 223.58 31.96 230.48 31.96 238.87"/>
          </g>
        </g>
        <g>
          <path class="cls-8" d="m147.26,221.96H28.71c-4.28,0-8.17-2.46-10.01-6.32l-6.77-14.24c-1.73-3.63-1.14-7.94,1.49-10.98l27.71-32.04c10.54-12.18,25.85-19.18,41.95-19.18h50.67c6.92,0,13.48,3.14,17.82,8.53l13.46,16.72c11.48,14.25,11.54,34.56.15,48.88h0c-4.34,5.46-10.93,8.64-17.9,8.64Z"/>
          <path class="cls-5" d="m130.32,178.73l13.46,16.72c6.07,7.54,8.92,16.78,8.59,25.93-1.66.38-3.37.58-5.11.58H28.71c-4.28,0-8.17-2.46-10.01-6.32l-6.77-14.24c-1.73-3.63-1.14-7.94,1.49-10.98l17.48-20.21h81.61c6.92,0,13.48,3.14,17.82,8.53Z"/>
        </g>
        <path class="cls-9" d="m297.18,84.51h5.87v.18c0,4.32-3.57,7.65-7.89,7.64-.03,0-.05,0-.08,0h-8.84c-13.73,0-26.96,3.73-38.46,10.49,13.6-11.66,31.07-18.3,49.41-18.3Z"/>
        <path class="cls-9" d="m351.3,0l91.19,94c5.25,5.41,8.19,12.66,8.19,20.2,0,3.3-.57,6.52-1.63,9.56-.34-7.04-3.19-13.74-8.12-18.82C440.94,104.94,344.92,4.19,351.3,0Z"/>
        <path class="cls-9" d="m329.05,123.57l23.52-21.11c3.32-2.98,5.76-6.67,7.23-10.7.54,8.07-2.6,16.08-8.79,21.64l-23.52,21.11c-27.36,24.56-45.41,57.43-51.71,93.1,4.28-39.86,23.13-76.99,53.27-104.04Z"/>
        <g>
          <path class="cls-13" d="m444.65,96.51c3.89,5.05,6.04,11.26,6.04,17.69,0,5.98-1.85,11.72-5.18,16.52-20.01-1.7-35.01-8.73-35.01-17.14s14.57-15.24,34.14-17.07Z"/>
          <path class="cls-10" d="m411.38,117c-.55-1.11-.87-2.25-.87-3.42,0-8.3,14.57-15.24,34.14-17.07.94,1.22,1.77,2.51,2.5,3.85-19.69,2.14-34.35,8.7-35.77,16.63Z"/>
        </g>
        <path class="cls-9" d="m16.7,74.61h68.87c9.24,0,17.27,6.34,19.42,15.33l10.13,42.39h0c-4.32,0-8.08-2.97-9.09-7.17l-7.3-30.53c-2.15-8.99-10.18-15.33-19.42-15.33H5.12c3-2.9,7.08-4.69,11.59-4.69Z"/>
        <path class="cls-9" d="m143.84,109.96c8.1,0,15.78,3.61,20.95,9.85l8.29,10c4.97,6,12.38,9.45,20.17,9.38,12.35-.1,24.1-4.68,33.19-12.65-9.64,10.97-23.6,17.36-38.39,17.34-7.55-.01-14.7-3.4-19.52-9.22l-8.42-10.17c-5.17-6.24-12.85-9.85-20.95-9.85h-6.97c-2.59,0-4.69-2.1-4.69-4.69h16.35Z"/>
        <path class="cls-9" d="m161.89,170.69l-13.46-16.72c-4.34-5.39-10.9-8.53-17.82-8.53H57.5c7.81-4.06,16.57-6.25,25.57-6.25h50.67c6.93,0,13.48,3.14,17.82,8.53l13.46,16.72c10.49,13.03,11.41,31.11,2.79,45.06,5.02-12.8,3.07-27.65-5.92-38.81Z"/>
      </g>
    </g>
  </g>
</svg>