<?xml version="1.0" encoding="UTF-8"?>
<svg id="Layer_1" data-name="Layer 1" xmlns="http://www.w3.org/2000/svg" xmlns:xlink="http://www.w3.org/1999/xlink" viewBox="0 0 59.04 8.47">
  <defs>
    <style>
      .cls-1 {
        fill: url(#GradientFill_1);
        fill-rule: evenodd;
      }

      .cls-2 {
        fill: #ec6a00;
      }

      .cls-3 {
        fill: #1c1c1c;
      }
    </style>
    <linearGradient id="GradientFill_1" data-name="GradientFill 1" x1="7.32" y1="3.93" x2="12.77" y2="3.9" gradientUnits="userSpaceOnUse">
      <stop offset="0" stop-color="#eb6724"/>
      <stop offset="1" stop-color="#f8991d"/>
    </linearGradient>
  </defs>
  <path class="cls-1" d="m10.24,4.17l-.84,1.25h.29l.15.17s-.14.19-.15.19h-.53l-1.38,2.06h2.26c.18-.01.28-.11.41-.25l2.9-3.6L10.45.26c-.12-.14-.23-.26-.41-.26h-2.18s1.32,2.1,1.32,2.1h.42l.29.17s-.28.19-.3.19h-.19l.84,1.35h.17l.25.17s-.24.19-.26.19h-.17Zm-6.73-1.23c-.68.01-1.69.08-2.23-.19-.2-.1-.37-.23-.53-.38-.13-.12-.67-.63-.74-.76h3.99s2.89,0,2.89,0h1.38l.32.49H3.42c.01.13.1.34.48.36h4.92l.88,1.35h-4.61c.01.13.09.34.42.36h4.18l-.88,1.25h-2.18c0,.13.05.34.24.36h1.69l-.3.43s-.06.03-.1.03h-1.35c-.39,0-.7-.09-1.06-.35-.22-.16-.91-.8-1.02-.99h3.25s-.21-.31-.21-.31h-3.38c-.45-.03-.78-.18-1.06-.39-.22-.17-.8-.72-.97-.95h4.44s-.23-.32-.23-.32h-3.07Z"/>
  <g>
    <path class="cls-3" d="m16.97,5.93v2.44h-1.56V1.8h2.59c.58,0,1.02.06,1.32.19.31.12.58.34.82.66s.36.71.36,1.17c0,.32-.06.64-.19.95-.13.31-.31.55-.54.73-.23.18-.46.29-.68.35-.22.06-.56.09-1.03.09h-1.08Zm-.05-1.19h1c.38,0,.65-.09.8-.26s.23-.38.23-.61c0-.27-.09-.48-.26-.63-.17-.16-.43-.24-.78-.24h-.99v1.74Z"/>
    <path class="cls-3" d="m22.71,1.67v1.43h-1.43v-1.43h1.43Zm0,1.84v4.85h-1.43V3.51h1.43Z"/>
    <path class="cls-3" d="m28.15,6.54c-.05.57-.28,1.04-.68,1.39-.4.35-.91.53-1.55.53-.69,0-1.24-.23-1.67-.68-.43-.45-.65-1.06-.65-1.82s.22-1.38.66-1.85,1.03-.71,1.77-.71c.59,0,1.08.18,1.47.53.39.36.6.8.65,1.34l-1.34.08c-.04-.58-.3-.87-.76-.87-.57,0-.85.46-.85,1.39,0,.62.08,1.01.24,1.18s.35.25.58.25c.44,0,.71-.28.79-.84l1.34.08Z"/>
    <path class="cls-3" d="m32.2,5.16l1.58,3.21h-1.58l-1.01-2.2-.84.97v1.23h-1.35V1.8h1.35v3.93l.21-.26c.09-.12.16-.22.23-.29l1.42-1.67h1.4l-1.39,1.65Z"/>
    <path class="cls-3" d="m38.23,1.67v1.43h-1.43v-1.43h1.43Zm0,1.84v4.85h-1.43V3.51h1.43Z"/>
    <path class="cls-3" d="m41.02,4.63v2.05c0,.26.04.43.12.51.08.09.26.13.54.13.13,0,.28,0,.45-.02v1.06c-.42.07-.72.11-.9.11-.6,0-1.02-.11-1.27-.34s-.37-.64-.37-1.24v-2.26h-.77v-1.11h.85l.12-1.43,1.23-.1v1.53h1.04v1.11h-1.04Z"/>
    <path class="cls-3" d="m46.95,5.93v2.44h-1.56V1.8h2.59c.58,0,1.02.06,1.32.19.31.12.58.34.82.66s.36.71.36,1.17c0,.32-.06.64-.19.95-.13.31-.31.55-.54.73-.23.18-.46.29-.68.35-.22.06-.56.09-1.03.09h-1.08Zm-.05-1.19h1c.38,0,.65-.09.8-.26s.23-.38.23-.61c0-.27-.09-.48-.26-.63-.17-.16-.43-.24-.78-.24h-.99v1.74Z"/>
    <path class="cls-3" d="m52.65,8.36h-1.39V3.51h1.31v.9c.2-.67.55-1.01,1.05-1.01.07,0,.16,0,.26.01v1.41c-.29,0-.52.04-.68.13-.16.09-.29.25-.4.48s-.15.55-.15.94v1.98Z"/>
    <path class="cls-3" d="m56.69,3.41c.74,0,1.32.24,1.73.73s.62,1.09.62,1.82-.22,1.32-.65,1.79c-.43.48-1,.72-1.72.72s-1.24-.24-1.66-.71-.62-1.08-.62-1.83c0-.52.09-.95.28-1.31.19-.36.44-.65.77-.87.33-.22.74-.33,1.24-.33Zm.04.94c-.27,0-.48.1-.61.31s-.21.63-.21,1.25c0,.57.07.98.2,1.23.13.25.34.38.61.38.24,0,.44-.11.59-.32.15-.21.23-.62.23-1.22,0-.64-.07-1.07-.2-1.3-.13-.23-.33-.34-.61-.34Z"/>
  </g>
  <rect class="cls-2" x="21.22" y="1.61" width="1.55" height="1.55"/>
  <rect class="cls-2" x="36.74" y="1.61" width="1.55" height="1.55"/>
</svg>