<?xml version="1.0" encoding="UTF-8"?>
<svg id="Layer_1" data-name="Layer 1" xmlns="http://www.w3.org/2000/svg" xmlns:xlink="http://www.w3.org/1999/xlink" viewBox="0 0 500 342.83">
  <defs>
    <style>
      .cls-1 {
        fill: #1b1c20;
      }

      .cls-2 {
        fill: #f7af2c;
      }

      .cls-3 {
        fill: url(#linear-gradient-2);
      }

      .cls-4 {
        fill: #98989c;
      }

      .cls-5 {
        fill: #fff;
      }

      .cls-6 {
        fill: #edeeef;
      }

      .cls-7 {
        fill: #bababa;
      }

      .cls-8 {
        fill: #c3c5c8;
      }

      .cls-9 {
        fill: url(#linear-gradient);
      }
    </style>
    <linearGradient id="linear-gradient" x1="7.62" y1="161.46" x2="435.39" y2="161.46" gradientUnits="userSpaceOnUse">
      <stop offset="0" stop-color="#cacac9"/>
      <stop offset="0" stop-color="#d8dad9"/>
      <stop offset=".01" stop-color="#e3e6e5"/>
      <stop offset=".02" stop-color="#eaedec"/>
      <stop offset=".03" stop-color="#ecefee"/>
      <stop offset=".17" stop-color="#e3e4e3"/>
      <stop offset=".38" stop-color="#dddddc"/>
      <stop offset=".91" stop-color="#dcdcdb"/>
      <stop offset=".95" stop-color="#dadad9"/>
      <stop offset=".96" stop-color="#d3d4d2"/>
      <stop offset=".98" stop-color="#c7c9c6"/>
      <stop offset=".98" stop-color="#bec1bd"/>
      <stop offset=".99" stop-color="#b7bbb7"/>
    </linearGradient>
    <linearGradient id="linear-gradient-2" x1="362.62" y1="92.88" x2="429.75" y2="92.88" gradientUnits="userSpaceOnUse">
      <stop offset="0" stop-color="#637771"/>
      <stop offset="1" stop-color="#93a19d"/>
    </linearGradient>
  </defs>
  <rect class="cls-7" x="474.7" y="221.94" width="8.76" height="9.75"/>
  <rect class="cls-8" x="444.03" y="272.95" width="17.14" height="5.17" transform="translate(156.59 715.02) rotate(-87.37)"/>
  <rect class="cls-8" x="431.99" y="278.84" width="5.17" height="17.14" transform="translate(12.47 592.83) rotate(-69.37)"/>
  <rect class="cls-8" x="431.72" y="305.64" width="17.14" height="5.17" transform="translate(-75.37 459.74) rotate(-51.37)"/>
  <rect class="cls-8" x="459.28" y="300.65" width="5.17" height="17.14" transform="translate(-93.94 304.99) rotate(-33.37)"/>
  <rect class="cls-8" x="460.9" y="286.43" width="17.14" height="5.17" transform="translate(-59.81 134.75) rotate(-15.37)"/>
  <path class="cls-1" d="m354.1,303.91h-57.55c-8.43,0-16.81-1.17-24.91-3.49l-20.54-5.87v-19.46h128.1v3.72c0,13.86-11.24,25.1-25.1,25.1Z"/>
  <path class="cls-1" d="m380.26,148.05l-28.71,5.24c-2.05.37-4.02-.99-4.4-3.04l-.07-.38c-.37-2.05.99-4.02,3.04-4.4l28.71-5.24,1.43,7.81Z"/>
  <path class="cls-1" d="m452.02,246.06c-26.5,0-47.98,21.48-47.98,47.98s21.48,47.98,47.98,47.98,47.98-21.48,47.98-47.98-21.48-47.98-47.98-47.98Zm0,72.31c-13.44,0-24.33-10.89-24.33-24.33s10.89-24.33,24.33-24.33,24.33,10.89,24.33,24.33-10.89,24.33-24.33,24.33Z"/>
  <path class="cls-4" d="m452.02,264.98c-16.05,0-29.05,13.01-29.05,29.05s13.01,29.06,29.05,29.06,29.06-13.01,29.06-29.06-13.01-29.05-29.06-29.05Zm0,53.39c-13.44,0-24.33-10.89-24.33-24.33s10.89-24.33,24.33-24.33,24.33,10.89,24.33,24.33-10.89,24.33-24.33,24.33Z"/>
  <path class="cls-8" d="m466.65,294.87c-.38,8.23-7.35,14.59-15.58,14.21-8.23-.38-14.59-7.36-14.21-15.58.38-8.23,7.35-14.59,15.58-14.21,8.23.38,14.59,7.35,14.21,15.58Z"/>
  <path class="cls-6" d="m454.17,295.26l-.83.49c-1.44.84-3.28.37-4.13-1.07l-18.98-32.27,6.03-3.55,18.98,32.27c.84,1.44.36,3.28-1.07,4.13Z"/>
  <rect class="cls-7" x="402.84" y="152.44" width="10.39" height="130.72" transform="translate(-54.09 236.94) rotate(-30.46)"/>
  <path class="cls-7" d="m431.24,215.83c-35.59,0-43.12,43.71-43.12,70.66.16.17.26.26.42.42h13.35c4.33,0,8.14-3.03,8.92-7.29,3.33-18.24,18.75-29.21,37.82-29.21h48.85v-5.28c-5.7-10.02-25.8-29.31-66.24-29.31Z"/>
  <path class="cls-5" d="m406.67,275.75c-.82,4.46-4.81,6.1-9.35,6.1h-9.12c-.04,1.54-.07,3.09-.07,4.64.16.17.26.26.42.42h13.35c4.33,0,8.14-3.03,8.92-7.29,3.33-18.24,18.75-29.21,37.82-29.21h48.85v-5.28h-51.19c-19.98,0-36.14,11.5-39.63,30.61Z"/>
  <rect class="cls-7" x="416.09" y="157.68" width="21" height="28.14"/>
  <path class="cls-1" d="m438.57,187.36h1.7c2.26,0,4.1-1.84,4.1-4.1v-23.03c0-2.26-1.84-4.1-4.1-4.1h-1.7c-.82,0-1.49.67-1.49,1.49v28.25c0,.82.67,1.49,1.49,1.49Z"/>
  <path class="cls-6" d="m251.09,65.38h-4.45c-3.02,0-5.68-1.81-6.79-4.62l-14.66-37.12,4.09-1.62,14.66,37.12c.44,1.12,1.5,1.84,2.7,1.84h4.45v4.4Z"/>
  <path class="cls-1" d="m153.76,202.33H7.62v-21.85h146.15c4.74,0,8.58,3.84,8.58,8.58v4.68c0,4.74-3.84,8.58-8.58,8.58Z"/>
  <path class="cls-1" d="m121.22,294.2h242.66c2.55,0,4.62-2.07,4.62-4.62v-1.84H121.22v6.47Z"/>
  <path d="m94.43,303.51c-.99,0-1.79-.8-1.79-1.79s.8-1.79,1.79-1.79h30.86c.37-.02,46.22-2.29,70.34-9.49.95-.28,1.95.26,2.23,1.2.28.95-.26,1.95-1.2,2.23-24.55,7.32-69.38,9.55-71.28,9.64h-30.94Z"/>
  <path d="m94.43,307.64c-.99,0-1.79-.8-1.79-1.79s.8-1.79,1.79-1.79h30.86c.21-.01,29.8-1.47,53.87-5.75.97-.17,1.9.48,2.08,1.45.17.97-.48,1.9-1.45,2.08-24.3,4.32-54.11,5.79-54.41,5.8h-30.94Z"/>
  <rect x="170.42" y="294.68" width="3.06" height="9.25" transform="translate(-35.47 23.4) rotate(-7.06)"/>
  <path d="m133.23,301.85h-30.86c-1.98-.09-46.82-2.32-71.37-9.64-.95-.28-1.49-1.28-1.2-2.23.28-.95,1.28-1.49,2.23-1.2,24.13,7.2,69.97,9.47,70.43,9.49h30.77c.99,0,1.79.8,1.79,1.79s-.8,1.79-1.79,1.79Z"/>
  <rect x="32.24" y="287.84" width="5.94" height="7.14"/>
  <path class="cls-7" d="m379.2,236.54h-10.9c-7.23,0-14.17,2.09-19.31,5.82l-34.7,25.18v15.27h64.91v-46.27Z"/>
  <rect class="cls-7" x="254.79" y="210.5" width="59.92" height="66.38"/>
  <rect class="cls-1" x="254.79" y="225.59" width="59.92" height="4.81"/>
  <rect class="cls-7" x="165.67" y="261.02" width="89.12" height="15.86"/>
  <path class="cls-1" d="m266.53,197.02l-7.65-55.79c-.47-3.43-3.4-5.98-6.86-5.98h-4.06c-4.52,0-8,3.99-7.39,8.47l10.35,75.51h71.4c2.15,0,3.89-1.74,3.89-3.89v-9.53c0-1.72-1.4-3.12-3.12-3.12h-50.07c-3.27,0-6.04-2.42-6.49-5.66Z"/>
  <rect class="cls-6" x="251.09" y="23.78" width="7.39" height="243.36"/>
  <path class="cls-6" d="m163.63,148.37c-3.59-3.32-8.14-3.27-8.96-3.23h-78.48v4.78h65.17v8.21h-34.9v3.61h34.9v6.82h-14.5v4.78h14.5v14.19h4.74v-14.19h16.22c3.07,0,5.57-2.5,5.57-5.57v-7.73c0-5.11-1.44-9.03-4.27-11.66Zm-17.52,1.55h8.81s3.15-.18,5.47,1.96c1.49,1.38,2.37,3.49,2.64,6.25h-16.92v-8.21Zm16.22,18.64h-16.22v-6.82h17.02v6.03c0,.44-.36.8-.8.8Z"/>
  <path class="cls-1" d="m254.79,28.67h-112.85c-8.15,0-14.76,6.61-14.76,14.76v109.91H7.62V42.56C7.62,18.44,27.64-.86,51.74.03l205.43,7.58c.87.03,1.74.14,2.59.32l117.15,23.34c1.33.26,2.28,1.43,2.28,2.78v1.15h-27.96l-96.45-6.52Z"/>
  <path class="cls-9" d="m429.73,145.46h-28.22c-4.33,0-8.13-2.86-9.35-7.01l-27.17-93.23c-.72-2.46,1.13-4.92,3.69-4.92h.44l-2.94-5.1h-14.94l18.94,120.16c.84,5.32.83,10.75-.04,16.07l-11.43,70.35c-2.36,14.54-14.92,25.21-29.64,25.21h-46.21c-8.88,0-16.07-7.2-16.07-16.07v-51.48c0-2.07-1.68-3.76-3.76-3.76h-16.49c-2.07,0-3.75,1.68-3.75,3.76v51.48c0,8.88-7.2,16.07-16.07,16.07h-32.59c-13.96,0-26.08-9.62-29.25-23.22l-10.81-46.46c-.66-2.84-1.65-5.59-2.94-8.2l-15.09-30.52c-1.59-3.21-4.85-5.24-8.43-5.24H7.62v100.39c0,8.57,2.98,16.86,8.44,23.47l4.48,5.42c2.67,3.23,6.65,5.11,10.84,5.11h339.9c13.44,0,25.47-8.34,30.17-20.93l31.01-82.95c4.71-12.6,3.69-26.61-2.73-38.39Z"/>
  <circle class="cls-1" cx="98.02" cy="294.85" r="47.98" transform="translate(-211.35 323.81) rotate(-76.96)"/>
  <circle class="cls-4" cx="98.02" cy="294.85" r="29.05" transform="translate(-211.47 322.5) rotate(-76.72)"/>
  <circle class="cls-8" cx="98.02" cy="294.85" r="23.24" transform="translate(-211.47 322.5) rotate(-76.72)"/>
  <path class="cls-6" d="m114.04,294.85c0,8.85-7.17,16.02-16.02,16.02s-16.02-7.17-16.02-16.02,7.17-16.02,16.02-16.02,16.02,7.17,16.02,16.02Z"/>
  <path class="cls-7" d="m98.02,225c-35.16,0-63.68,25.48-63.9,62.3.16.16.26.26.42.43h16.28c4.33,0,8.14-3.03,8.92-7.28,3.33-18.24,19.2-29.22,38.27-29.22s34.94,10.98,38.27,29.22c.78,4.26,4.59,7.28,8.92,7.28h16.71c0-37.05-28.61-62.73-63.9-62.73Z"/>
  <path class="cls-6" d="m320.58,287.73h-145.47v-1.04c0-3.78,3.06-6.85,6.85-6.85h138.62c22.16,0,32.93-11.79,37.17-33.68,1.81-9.34,12.85-85.1,12.97-85.82h.71c2.17,0,3.88,1.85,3.71,4.02-1.24,15.67-8.05,75.57-9.66,83.85-5.23,26.96-17.58,39.52-44.9,39.52Z"/>
  <path class="cls-6" d="m10.99,265.79h-4.91c-3.36,0-6.08-2.72-6.08-6.08v-14.26c0-3.36,2.72-6.08,6.08-6.08h4.91v26.42Z"/>
  <path class="cls-3" d="m399.3,145.46h30.43s0-.01.02-.03l-60.63-105.13h-2.65c-2.56,0-4.41,2.46-3.69,4.92l27.17,93.23c1.21,4.15,5.02,7.01,9.35,7.01Z"/>
  <path class="cls-1" d="m432.12,150.56h-62.7l.75,4.79c.04.26.07.52.11.77h63.66c-.48-1.89-1.1-3.74-1.82-5.56Z"/>
  <path class="cls-1" d="m105.31,170.43h-.4c-2.31,0-4.18-1.87-4.18-4.18v-18.72h8.77v18.72c0,2.31-1.87,4.18-4.18,4.18Z"/>
  <rect class="cls-7" x="98.02" y="159.93" width="14.19" height="3.6"/>
  <path class="cls-1" d="m30.82,170.43h-.4c-2.31,0-4.18-1.87-4.18-4.18v-18.72h8.77v18.72c0,2.31-1.87,4.18-4.18,4.18Z"/>
  <rect class="cls-7" x="23.53" y="159.93" width="14.19" height="3.6"/>
  <path class="cls-6" d="m382.4,203.86l48.28,1.5c2.57.08,4.7-1.98,4.7-4.56v-.57c0-2.58-2.13-4.64-4.7-4.56l-48.28,1.5c-1.79.06-3.21,1.52-3.21,3.31v.06c0,1.79,1.42,3.25,3.21,3.31Z"/>
  <rect class="cls-1" x="380.26" y="178.41" width="26.5" height="12.68" rx="2.27" ry="2.27"/>
  <rect class="cls-2" x="382.02" y="180.43" width="22.98" height="8.64" rx="1.06" ry="1.06"/>
  <path class="cls-7" d="m486.53,225.77l-10.61-1.21c-3.97-.45-6.97-3.81-6.97-7.81v-1.84c0-4,3-7.36,6.97-7.81l10.61-1.21v19.88Z"/>
  <path class="cls-1" d="m487.38,226.67h1.18c1.57,0,2.85-1.27,2.85-2.85v-15.99c0-1.57-1.27-2.85-2.85-2.85h-1.18c-.57,0-1.03.46-1.03,1.03v19.61c0,.57.46,1.03,1.03,1.03Z"/>
</svg>